<svg width="26" height="21" viewBox="0 0 26 21" fill="none" xmlns="http://www.w3.org/2000/svg">
<path d="M16.75 6.17857H20.75M16.75 10.25H20.75M16.75 14.3214H20.75M12.75 15.6786C12.342 14.8466 11.506 14.3214 10.5927 14.3214H6.90733C5.994 14.3214 5.158 14.8466 4.75 15.6786M2.08333 0.75H23.4167C23.7703 0.75 24.1094 0.892985 24.3595 1.1475C24.6095 1.40201 24.75 1.74721 24.75 2.10714V18.3929C24.75 18.7528 24.6095 19.098 24.3595 19.3525C24.1094 19.607 23.7703 19.75 23.4167 19.75H2.08333C1.72971 19.75 1.39057 19.607 1.14052 19.3525C0.890476 19.098 0.75 18.7528 0.75 18.3929V2.10714C0.75 1.74721 0.890476 1.40201 1.14052 1.1475C1.39057 0.892985 1.72971 0.75 2.08333 0.75ZM11.4167 7.53571C11.4167 8.25559 11.1357 8.94598 10.6356 9.455C10.1355 9.96403 9.45724 10.25 8.75 10.25C8.04276 10.25 7.36448 9.96403 6.86438 9.455C6.36428 8.94598 6.08333 8.25559 6.08333 7.53571C6.08333 6.81584 6.36428 6.12545 6.86438 5.61642C7.36448 5.1074 8.04276 4.82143 8.75 4.82143C9.45724 4.82143 10.1355 5.1074 10.6356 5.61642C11.1357 6.12545 11.4167 6.81584 11.4167 7.53571Z" stroke="black" stroke-width="1.5" stroke-linecap="round" stroke-linejoin="round"/>
</svg>
